<svg width="600" height="160" viewBox="0 0 600 160" xmlns="http://www.w3.org/2000/svg">
  <defs>
    <linearGradient id="icon-bg" x1="0" y1="1" x2="1" y2="0">
      <stop offset="0%" stop-color="#16A34A"/>
      <stop offset="100%" stop-color="#4ADE80"/>
    </linearGradient>
  </defs>
  
  <!-- Icon 120x120 at (20,20) center=(80,80) -->
  <rect x="20" y="20" width="120" height="120" rx="30" fill="url(#icon-bg)"/>
  <!-- Center leaf right -->
  <path d="M80 118 Q80 81 80 42 Q88 51 89 66 Q89 95 80 118Z" fill="#fff" opacity="0.9"/>
  <!-- Center leaf left -->
  <path d="M80 118 Q80 81 80 42 Q73 51 71 66 Q71 95 80 118Z" fill="#fff" opacity="0.75"/>
  <!-- Left leaf -->
  <path d="M77 118 Q59 86 48 58 Q56 59 63 72 Q73 89 77 118Z" fill="#fff" opacity="0.65"/>
  <!-- Right leaf -->
  <path d="M83 118 Q101 86 112 58 Q104 59 97 72 Q88 89 83 118Z" fill="#fff" opacity="0.55"/>
  <!-- Veins -->
  <path d="M80 114 L80 46" stroke="#16A34A" stroke-width="1.5" stroke-linecap="round" fill="none" opacity="0.35"/>
  <path d="M77 114 Q61 86 51 62" stroke="#16A34A" stroke-width="1" stroke-linecap="round" fill="none" opacity="0.25"/>
  <path d="M83 114 Q99 86 109 62" stroke="#16A34A" stroke-width="1" stroke-linecap="round" fill="none" opacity="0.25"/>
  
  <!-- Wordmark -->
  <text x="180" y="90" font-family="'Helvetica Neue', Arial, sans-serif" font-weight="800" font-size="64" letter-spacing="-2">
    <tspan fill="#16A34A">cleo</tspan><tspan fill="#4ADE80">yards</tspan>
  </text>
  
  <!-- Separator line -->
  <line x1="182" y1="105" x2="488" y2="105" stroke="#9CA3AF" stroke-width="1.5" opacity="0.4"/>
  
  <!-- POWERED BY IA -->
  <text x="335" y="132" font-family="'Helvetica Neue', Arial, sans-serif" font-weight="500" font-size="16" fill="#9CA3AF" text-anchor="middle" letter-spacing="8">POWERED BY IA</text>
</svg>
