<svg width="512" height="512" viewBox="0 0 512 512" xmlns="http://www.w3.org/2000/svg">
  <defs>
    <linearGradient id="icon-bg" x1="0" y1="1" x2="1" y2="0">
      <stop offset="0%" stop-color="#16A34A"/>
      <stop offset="100%" stop-color="#4ADE80"/>
    </linearGradient>
  </defs>
  <rect width="512" height="512" rx="128" fill="url(#icon-bg)"/>
  <!-- Center leaf -->
  <path d="M256 420 Q256 260 256 92 Q288 132 296 196 Q296 320 256 420Z" fill="#fff" opacity="0.9"/>
  <path d="M256 420 Q256 260 256 92 Q224 132 216 196 Q216 320 256 420Z" fill="#fff" opacity="0.75"/>
  <!-- Left leaf -->
  <path d="M244 420 Q168 280 120 160 Q152 168 184 220 Q224 296 244 420Z" fill="#fff" opacity="0.65"/>
  <!-- Right leaf -->
  <path d="M268 420 Q344 280 392 160 Q360 168 328 220 Q288 296 268 420Z" fill="#fff" opacity="0.55"/>
  <!-- Veins -->
  <path d="M256 400 L256 112" stroke="#16A34A" stroke-width="5" stroke-linecap="round" fill="none" opacity="0.35"/>
  <path d="M244 400 Q176 280 132 180" stroke="#16A34A" stroke-width="3.5" stroke-linecap="round" fill="none" opacity="0.25"/>
  <path d="M268 400 Q336 280 380 180" stroke="#16A34A" stroke-width="3.5" stroke-linecap="round" fill="none" opacity="0.25"/>
</svg>
